<?xml version="1.0" encoding="UTF-8"?> <svg xmlns="http://www.w3.org/2000/svg" viewBox="0 0 79.57 79.57"><defs><style>.cls-1{fill:none;stroke:#b36e21;stroke-miterlimit:10;stroke-width:0.5px;}</style></defs><g id="Layer_2" data-name="Layer 2"><g id="Layer_1-2" data-name="Layer 1"><polygon class="cls-1" points="39.78 7.5 41.22 32.58 52.14 9.95 43.86 33.68 62.62 16.95 45.89 35.7 69.61 27.43 46.99 38.35 72.07 39.78 46.99 41.22 69.61 52.14 45.89 43.87 62.62 62.62 43.86 45.89 52.14 69.62 41.22 46.99 39.78 72.07 38.35 46.99 27.43 69.62 35.7 45.89 16.95 62.62 33.68 43.87 9.95 52.14 32.58 41.22 7.49 39.78 32.58 38.35 9.95 27.43 33.68 35.7 16.95 16.95 35.7 33.68 27.43 9.95 38.35 32.58 39.78 7.5"></polygon><polygon class="cls-1" points="39.78 1.72 43 23.64 54.35 4.62 48.93 26.1 66.7 12.87 53.47 30.64 74.95 25.22 55.93 36.57 77.84 39.78 55.93 43 74.95 54.35 53.47 48.93 66.7 66.7 48.93 53.47 54.35 74.95 43 55.93 39.78 77.84 36.57 55.93 25.22 74.95 30.64 53.47 12.87 66.7 26.09 48.93 4.62 54.35 23.64 43 1.72 39.78 23.64 36.57 4.62 25.22 26.09 30.64 12.87 12.87 30.64 26.1 25.22 4.62 36.57 23.64 39.78 1.72"></polygon></g></g></svg> 